<svg width="877" height="763" viewBox="0 0 877 763" fill="none" xmlns="http://www.w3.org/2000/svg">
<g id="memphis-design">
<g id="bathroom" filter="url(#filter0_d_1_272)">
<rect id="Rectangle 11" x="562.894" y="277" width="48" height="48" transform="rotate(29.5175 562.894 277)" fill="url(#paint0_linear_1_272)" stroke="url(#paint1_linear_1_272)"/>
<rect id="Rectangle 12" x="604.664" y="300.649" width="48" height="48" transform="rotate(29.5175 604.664 300.649)" fill="url(#paint2_linear_1_272)" stroke="url(#paint3_linear_1_272)"/>
<rect id="Rectangle 13" x="646.434" y="324.298" width="48" height="48" transform="rotate(29.5175 646.434 324.298)" fill="url(#paint4_linear_1_272)" stroke="url(#paint5_linear_1_272)"/>
<rect id="Rectangle 14" x="688.204" y="347.947" width="48" height="48" transform="rotate(29.5175 688.204 347.947)" fill="url(#paint6_linear_1_272)" stroke="url(#paint7_linear_1_272)"/>
<rect id="Rectangle 15" x="729.974" y="371.596" width="48" height="48" transform="rotate(29.5175 729.974 371.596)" fill="url(#paint8_linear_1_272)" stroke="url(#paint9_linear_1_272)"/>
<rect id="Rectangle 16" x="771.744" y="395.245" width="48" height="48" transform="rotate(29.5175 771.744 395.245)" fill="url(#paint10_linear_1_272)" stroke="url(#paint11_linear_1_272)"/>
<rect id="Rectangle 17" x="539.245" y="318.77" width="48" height="48" transform="rotate(29.5175 539.245 318.77)" fill="url(#paint12_linear_1_272)" stroke="url(#paint13_linear_1_272)"/>
<rect id="Rectangle 18" x="581.015" y="342.419" width="48" height="48" transform="rotate(29.5175 581.015 342.419)" fill="url(#paint14_linear_1_272)" stroke="url(#paint15_linear_1_272)"/>
<rect id="Rectangle 19" x="622.785" y="366.068" width="48" height="48" transform="rotate(29.5175 622.785 366.068)" fill="url(#paint16_linear_1_272)" stroke="url(#paint17_linear_1_272)"/>
<rect id="Rectangle 20" x="664.555" y="389.717" width="48" height="48" transform="rotate(29.5175 664.555 389.717)" fill="url(#paint18_linear_1_272)" stroke="url(#paint19_linear_1_272)"/>
<rect id="Rectangle 21" x="706.325" y="413.366" width="48" height="48" transform="rotate(29.5175 706.325 413.366)" fill="url(#paint20_linear_1_272)" stroke="url(#paint21_linear_1_272)"/>
<rect id="Rectangle 22" x="748.095" y="437.015" width="48" height="48" transform="rotate(29.5175 748.095 437.015)" fill="url(#paint22_linear_1_272)" stroke="url(#paint23_linear_1_272)"/>
<rect id="Rectangle 23" x="515.596" y="360.54" width="48" height="48" transform="rotate(29.5175 515.596 360.54)" fill="url(#paint24_linear_1_272)" stroke="url(#paint25_linear_1_272)"/>
<rect id="Rectangle 24" x="557.366" y="384.189" width="48" height="48" transform="rotate(29.5175 557.366 384.189)" fill="url(#paint26_linear_1_272)" stroke="url(#paint27_linear_1_272)"/>
<rect id="Rectangle 25" x="599.136" y="407.838" width="48" height="48" transform="rotate(29.5175 599.136 407.838)" fill="url(#paint28_linear_1_272)" stroke="url(#paint29_linear_1_272)"/>
<rect id="Rectangle 26" x="640.906" y="431.487" width="48" height="48" transform="rotate(29.5175 640.906 431.487)" fill="url(#paint30_linear_1_272)" stroke="url(#paint31_linear_1_272)"/>
<rect id="Rectangle 27" x="682.676" y="455.136" width="48" height="48" transform="rotate(29.5175 682.676 455.136)" fill="url(#paint32_linear_1_272)" stroke="url(#paint33_linear_1_272)"/>
<rect id="Rectangle 28" x="724.446" y="478.785" width="48" height="48" transform="rotate(29.5175 724.446 478.785)" fill="url(#paint34_linear_1_272)" stroke="url(#paint35_linear_1_272)"/>
<rect id="Rectangle 29" x="491.947" y="402.31" width="48" height="48" transform="rotate(29.5175 491.947 402.31)" fill="url(#paint36_linear_1_272)" stroke="url(#paint37_linear_1_272)"/>
<rect id="Rectangle 30" x="533.717" y="425.959" width="48" height="48" transform="rotate(29.5175 533.717 425.959)" fill="url(#paint38_linear_1_272)" stroke="url(#paint39_linear_1_272)"/>
<rect id="Rectangle 31" x="575.487" y="449.608" width="48" height="48" transform="rotate(29.5175 575.487 449.608)" fill="url(#paint40_linear_1_272)" stroke="url(#paint41_linear_1_272)"/>
<rect id="Rectangle 32" x="617.257" y="473.257" width="48" height="48" transform="rotate(29.5175 617.257 473.257)" fill="url(#paint42_linear_1_272)" stroke="url(#paint43_linear_1_272)"/>
<rect id="Rectangle 33" x="659.027" y="496.906" width="48" height="48" transform="rotate(29.5175 659.027 496.906)" fill="url(#paint44_linear_1_272)" stroke="url(#paint45_linear_1_272)"/>
<rect id="Rectangle 34" x="700.797" y="520.555" width="48" height="48" transform="rotate(29.5175 700.797 520.555)" fill="url(#paint46_linear_1_272)" stroke="url(#paint47_linear_1_272)"/>
<rect id="Rectangle 35" x="468.298" y="444.079" width="48" height="48" transform="rotate(29.5175 468.298 444.079)" fill="url(#paint48_linear_1_272)" stroke="url(#paint49_linear_1_272)"/>
<rect id="Rectangle 36" x="510.068" y="467.729" width="48" height="48" transform="rotate(29.5175 510.068 467.729)" fill="url(#paint50_linear_1_272)" stroke="url(#paint51_linear_1_272)"/>
<rect id="Rectangle 37" x="551.838" y="491.378" width="48" height="48" transform="rotate(29.5175 551.838 491.378)" fill="url(#paint52_linear_1_272)" stroke="url(#paint53_linear_1_272)"/>
<rect id="Rectangle 38" x="593.608" y="515.027" width="48" height="48" transform="rotate(29.5175 593.608 515.027)" fill="url(#paint54_linear_1_272)" stroke="url(#paint55_linear_1_272)"/>
<rect id="Rectangle 39" x="635.378" y="538.676" width="48" height="48" transform="rotate(29.5175 635.378 538.676)" fill="url(#paint56_linear_1_272)" stroke="url(#paint57_linear_1_272)"/>
<rect id="Rectangle 40" x="677.148" y="562.325" width="48" height="48" transform="rotate(29.5175 677.148 562.325)" fill="url(#paint58_linear_1_272)" stroke="url(#paint59_linear_1_272)"/>
<rect id="Rectangle 41" x="444.649" y="485.849" width="48" height="48" transform="rotate(29.5175 444.649 485.849)" fill="url(#paint60_linear_1_272)" stroke="url(#paint61_linear_1_272)"/>
<rect id="Rectangle 42" x="486.419" y="509.498" width="48" height="48" transform="rotate(29.5175 486.419 509.498)" fill="url(#paint62_linear_1_272)" stroke="url(#paint63_linear_1_272)"/>
<rect id="Rectangle 43" x="528.189" y="533.147" width="48" height="48" transform="rotate(29.5175 528.189 533.147)" fill="url(#paint64_linear_1_272)" stroke="url(#paint65_linear_1_272)"/>
<rect id="Rectangle 44" x="569.959" y="556.797" width="48" height="48" transform="rotate(29.5175 569.959 556.797)" fill="url(#paint66_linear_1_272)" stroke="url(#paint67_linear_1_272)"/>
<rect id="Rectangle 45" x="611.729" y="580.446" width="48" height="48" transform="rotate(29.5175 611.729 580.446)" fill="url(#paint68_linear_1_272)" stroke="url(#paint69_linear_1_272)"/>
<rect id="Rectangle 46" x="653.498" y="604.095" width="48" height="48" transform="rotate(29.5175 653.498 604.095)" fill="url(#paint70_linear_1_272)" stroke="url(#paint71_linear_1_272)"/>
</g>
<g id="weird-chrome">
<g id="Group 14" filter="url(#filter1_di_1_272)">
<rect id="Rectangle 6" width="239.675" height="239.755" transform="matrix(0.27358 0.961851 -0.961904 0.273382 656.913 326.795)" fill="#FB5607"/>
<path id="Rectangle 8" d="M656.913 326.795L722.484 557.327L660.504 574.942L576.31 527.235L656.913 326.795Z" fill="#3A86FF"/>
<path id="Rectangle 9" d="M536.46 516.759L722.484 557.327L491.862 622.871L426.292 392.34L536.46 516.759Z" fill="#27AE60"/>
<path id="Rectangle 7" d="M656.913 326.795L491.084 428.431L491.862 622.871L426.292 392.34L656.913 326.795Z" fill="#FFBE0B"/>
</g>
<rect id="Rectangle 10" width="239.755" height="239.675" transform="matrix(-0.963576 0.267434 -0.267627 -0.963523 722.345 556.83)" fill="url(#paint72_linear_1_272)" fill-opacity="0.5"/>
</g>
<g id="chevrons">
<path id="Vector 6" d="M418 527.5L461.03 539.03L449.5 582.06M476.78 566.31L488.31 523.28L445.28 511.75M472.56 496L515.589 507.53L504.06 550.56M531.339 534.81L542.869 491.78L499.839 480.25M527.119 464.5L570.149 476.03L558.619 519.06M585.899 503.31L597.429 460.28L554.399 448.75M581.679 433L624.709 444.53L613.179 487.56M640.459 471.81L651.988 428.78L608.959 417.25M636.238 401.5L679.268 413.03L667.738 456.06M695.018 440.31L706.548 397.28L663.518 385.75M690.798 370L733.828 381.53L722.298 424.56M718.078 354.25L761.108 365.78L749.578 408.81M745.358 338.5L788.387 350.03L776.858 393.06M772.637 322.75L815.667 334.28L804.137 377.31M799.917 307L842.947 318.53L831.417 361.56M827.197 291.25L870.227 302.78L858.697 345.81M854.477 275.5L897.507 287.03L885.977 330.06M881.757 259.75L924.786 271.28L913.257 314.31" stroke="#27AE60" stroke-width="8"/>
</g>
<g id="circle-empty">
<path id="Circle empty" d="M739.94 405.902C739.94 462.972 693.656 509.244 636.553 509.244C579.45 509.244 533.167 462.972 533.167 405.902C533.167 348.832 579.45 302.56 636.553 302.56C693.656 302.56 739.94 348.832 739.94 405.902Z" stroke="#FFBE0B" stroke-width="22"/>
</g>
<g id="arch">
<path id="Vector 1" d="M599.09 77.8559V230.644V383.433H420.768L428.26 233.64C428.26 233.64 433.505 169.729 479.459 123.792C525.414 77.8559 599.09 77.8559 599.09 77.8559Z" fill="#FB5607"/>
</g>
<g id="erb">
<g id="Erb">
<mask id="path-45-inside-1_1_272" fill="white">
<path d="M418.39 217.392C399.752 258.299 351.469 276.357 310.547 257.727C269.625 239.096 251.56 190.832 270.197 149.926C288.835 109.02 270.197 149.926 378.04 109.592C418.39 217.392 437.027 176.486 418.39 217.392Z"/>
</mask>
<path d="M418.39 217.392C399.752 258.299 351.469 276.357 310.547 257.727C269.625 239.096 251.56 190.832 270.197 149.926C288.835 109.02 270.197 149.926 378.04 109.592C418.39 217.392 437.027 176.486 418.39 217.392Z" stroke="#27AE60" stroke-width="22" mask="url(#path-45-inside-1_1_272)"/>
</g>
</g>
<g id="scribbles">
<path id="Vector 3" d="M91.7594 116.691L123.703 98.1617L142.592 129.893L174.535 111.364L193.425 143.095L225.368 124.566L244.258 156.298L276.201 137.768L295.091 169.5L327.034 150.971L345.923 182.702L377.867 164.173L396.756 195.904L428.699 177.375L447.589 209.107" stroke="#FB5607" stroke-width="5"/>
<path id="Vector 4" d="M82.7223 151.487L114.666 132.958L133.555 164.689L165.498 146.16L184.388 177.891L216.331 159.362L235.221 191.093L267.164 172.564L286.053 204.296L317.997 185.766L336.886 217.498L368.829 198.969L387.719 230.7L419.662 212.171L438.552 243.902" stroke="#27AE60" stroke-width="5"/>
<path id="Vector 5" d="M87.4919 133.122L119.435 114.593L138.325 146.325L170.268 127.795L189.157 159.527L221.101 140.998L239.99 172.729L271.933 154.2L290.823 185.931L322.766 167.402L341.656 199.133L373.599 180.604L392.489 212.336L424.432 193.806L443.321 225.538" stroke="#FFBE0B" stroke-width="5"/>
</g>
<g id="triangle-solid">
<path id="Polygon 2" d="M530.294 95.5936L673.684 202.847L509.069 273.351L530.294 95.5936Z" fill="#FFBE0B"/>
</g>
<g id="hoop-volleyball">
<g id="Ellipse 14">
<mask id="path-50-inside-2_1_272" fill="white">
<path d="M295.392 202.683C317.579 202.683 336.95 214.732 347.314 232.642C352.414 241.455 355.333 251.687 355.333 262.6C355.333 271.392 353.438 279.742 350.035 287.263C347.034 293.897 342.86 299.887 337.776 304.968C332.693 310.049 326.701 314.222 320.065 317.222C312.54 320.624 304.188 322.517 295.392 322.517C273.206 322.517 253.835 310.468 243.471 292.559C238.371 283.746 235.452 273.514 235.452 262.6C235.452 253.808 237.346 245.459 240.749 237.937C243.75 231.303 247.925 225.314 253.008 220.232C258.091 215.151 264.083 210.978 270.719 207.978C278.244 204.577 286.597 202.683 295.392 202.683Z"/>
</mask>
<path d="M295.392 262.6L294.685 263.307L295.392 262.6ZM295.392 292.559L294.685 293.266L295.392 292.559ZM295.392 232.642L294.685 233.349L295.392 232.642ZM294.685 203.39L354.626 263.307L356.04 261.893L296.099 201.976L294.685 203.39ZM234.745 263.307L294.685 323.225L296.099 321.81L236.159 261.893L234.745 263.307ZM294.685 263.307L337.07 305.675L338.483 304.261L296.099 261.893L294.685 263.307ZM296.099 261.893L253.715 219.525L252.301 220.94L294.685 263.307L296.099 261.893ZM294.685 293.266L319.358 317.929L320.772 316.515L296.099 291.851L294.685 293.266ZM296.099 291.851L241.456 237.23L240.042 238.644L294.685 293.266L296.099 291.851ZM296.099 231.934L271.426 207.271L270.012 208.686L294.685 233.349L296.099 231.934ZM294.685 233.349L349.328 287.971L350.742 286.556L296.099 231.934L294.685 233.349ZM337.776 304.968L336.363 303.553L337.776 304.968ZM253.008 220.232L251.594 218.818L253.008 220.232ZM347.314 232.642L349.045 231.64L347.314 232.642ZM243.471 292.559L245.202 291.557L243.471 292.559ZM320.065 317.222L320.889 319.044L320.065 317.222ZM240.749 237.937L242.571 238.761L240.749 237.937ZM270.719 207.978L271.543 209.801L271.543 209.801L270.719 207.978ZM350.035 287.263L351.858 288.088H351.858L350.035 287.263ZM295.392 204.683C316.836 204.683 335.562 216.327 345.583 233.643L349.045 231.64C338.338 213.138 318.321 200.683 295.392 200.683L295.392 204.683ZM345.583 233.643C350.511 242.16 353.333 252.048 353.333 262.6L357.333 262.6C357.333 251.326 354.316 240.749 349.045 231.64L345.583 233.643ZM295.392 320.517C273.948 320.517 255.223 308.874 245.202 291.557L241.74 293.56C252.447 312.062 272.463 324.517 295.392 324.517L295.392 320.517ZM245.202 291.557C240.273 283.04 237.452 273.153 237.452 262.6L233.452 262.6C233.452 273.875 236.468 284.451 241.74 293.56L245.202 291.557ZM336.363 303.553C331.448 308.466 325.655 312.5 319.241 315.4L320.889 319.044C327.748 315.944 333.939 311.632 339.19 306.382L336.363 303.553ZM319.241 315.4C311.97 318.686 303.898 320.517 295.392 320.517L295.392 324.517C304.477 324.517 313.111 322.561 320.889 319.044L319.241 315.4ZM237.452 262.6C237.452 254.098 239.283 246.029 242.571 238.761L238.927 237.112C235.409 244.888 233.452 253.518 233.452 262.6L237.452 262.6ZM242.571 238.761C245.472 232.35 249.507 226.56 254.422 221.647L251.594 218.818C246.342 224.067 242.029 230.256 238.927 237.112L242.571 238.761ZM254.422 221.647C259.337 216.734 265.129 212.7 271.543 209.801L269.895 206.156C263.037 209.256 256.846 213.568 251.594 218.818L254.422 221.647ZM271.543 209.801C278.814 206.514 286.887 204.683 295.392 204.683L295.392 200.683C286.307 200.683 277.674 202.64 269.895 206.156L271.543 209.801ZM353.333 262.6C353.333 271.102 351.501 279.171 348.213 286.439L351.858 288.088C355.375 280.312 357.333 271.682 357.333 262.6L353.333 262.6ZM348.213 286.439C345.313 292.85 341.277 298.64 336.363 303.553L339.19 306.382C344.442 301.133 348.756 294.944 351.858 288.088L348.213 286.439Z" fill="black" mask="url(#path-50-inside-2_1_272)"/>
</g>
<ellipse id="Ellipse 15" cx="281.406" cy="277.579" rx="59.9171" ry="59.9404" transform="rotate(90 281.406 277.579)" fill="url(#paint73_linear_1_272)"/>
</g>
<g id="torx">
<path id="Torx" d="M611.145 268.205C611.973 263.872 618.176 263.872 619.004 268.205L620.07 273.791C620.638 276.766 624.178 278.055 626.526 276.141L630.934 272.548C634.354 269.76 639.106 273.749 636.953 277.6L634.182 282.557C632.703 285.202 634.588 288.466 637.617 288.508L643.296 288.588C647.708 288.65 648.785 294.76 644.66 296.327L639.353 298.342C636.521 299.418 635.866 303.13 638.16 305.11L642.458 308.819C645.798 311.701 642.697 317.075 638.53 315.625L633.162 313.756C630.301 312.761 627.414 315.183 627.899 318.174L628.807 323.783C629.513 328.138 623.683 330.261 621.423 326.472L618.51 321.587C616.958 318.985 613.191 318.985 611.639 321.587L608.726 326.472C606.466 330.261 600.636 328.138 601.342 323.783L602.25 318.174C602.735 315.183 599.848 312.761 596.987 313.756L591.619 315.625C587.452 317.075 584.351 311.701 587.691 308.819L591.989 305.11C594.283 303.13 593.629 299.418 590.796 298.342L585.489 296.327C581.364 294.76 582.441 288.65 586.853 288.588L592.532 288.508C595.561 288.466 597.446 285.202 595.967 282.557L593.196 277.6C591.043 273.749 595.796 269.76 599.215 272.548L603.623 276.141C605.971 278.055 609.511 276.766 610.079 273.791L611.145 268.205Z" fill="#8338EC"/>
</g>
<g id="ring-half-blue">
<path id="Ellipse 11" d="M470.676 453.062C451.336 471.145 420.992 470.131 402.903 450.798C384.813 431.465 385.827 401.134 405.167 383.051C424.508 364.968 454.851 365.982 472.941 385.314C491.031 404.647 490.017 434.979 470.676 453.062Z" stroke="#FFBE0B" stroke-width="4"/>
<path id="Ellipse 12" d="M401.442 452.164C382.597 432.024 383.653 400.428 403.801 381.59C423.948 362.753 455.557 363.809 474.402 383.949" stroke="#56CCF2" stroke-width="17"/>
</g>
<g id="dots">
<circle id="Ellipse 1" r="7.9905" transform="matrix(0.707245 0.706969 -0.707245 0.706969 457.652 72.4907)" fill="black"/>
<circle id="Ellipse 2" r="7.9905" transform="matrix(0.707245 0.706969 -0.707245 0.706969 457.652 72.4907)" fill="black"/>
<circle id="Ellipse 3" r="7.9905" transform="matrix(0.707245 0.706969 -0.707245 0.706969 474.606 89.4378)" fill="black"/>
<circle id="Ellipse 4" r="7.9905" transform="matrix(0.707245 0.706969 -0.707245 0.706969 491.56 106.385)" fill="black"/>
<circle id="Ellipse 5" r="7.9905" transform="matrix(0.707245 0.706969 -0.707245 0.706969 508.513 123.332)" fill="black"/>
<circle id="Ellipse 6" r="7.9905" transform="matrix(0.707245 0.706969 -0.707245 0.706969 525.467 140.279)" fill="black"/>
<circle id="Ellipse 7" r="7.9905" transform="matrix(0.707245 0.706969 -0.707245 0.706969 542.421 157.226)" fill="black"/>
<circle id="Ellipse 8" r="7.9905" transform="matrix(0.707245 0.706969 -0.707245 0.706969 559.375 174.173)" fill="black"/>
<circle id="Ellipse 9" r="7.9905" transform="matrix(0.707245 0.706969 -0.707245 0.706969 576.328 191.12)" fill="black"/>
<circle id="Ellipse 1_2" r="7.9905" transform="matrix(0.707245 0.706969 -0.707245 0.706969 440.699 89.4378)" fill="black"/>
<circle id="Ellipse 2_2" r="7.9905" transform="matrix(0.707245 0.706969 -0.707245 0.706969 440.699 89.4378)" fill="black"/>
<circle id="Ellipse 3_2" r="7.9905" transform="matrix(0.707245 0.706969 -0.707245 0.706969 457.652 106.385)" fill="black"/>
<circle id="Ellipse 4_2" r="7.9905" transform="matrix(0.707245 0.706969 -0.707245 0.706969 474.606 123.332)" fill="black"/>
<circle id="Ellipse 5_2" r="7.9905" transform="matrix(0.707245 0.706969 -0.707245 0.706969 491.56 140.279)" fill="black"/>
<circle id="Ellipse 6_2" r="7.9905" transform="matrix(0.707245 0.706969 -0.707245 0.706969 508.513 157.226)" fill="black"/>
<circle id="Ellipse 7_2" r="7.9905" transform="matrix(0.707245 0.706969 -0.707245 0.706969 525.467 174.173)" fill="black"/>
<circle id="Ellipse 8_2" r="7.9905" transform="matrix(0.707245 0.706969 -0.707245 0.706969 542.421 191.12)" fill="black"/>
<circle id="Ellipse 9_2" r="7.9905" transform="matrix(0.707245 0.706969 -0.707245 0.706969 559.375 208.068)" fill="black"/>
<circle id="Ellipse 1_3" r="7.9905" transform="matrix(0.707245 0.706969 -0.707245 0.706969 423.745 106.385)" fill="black"/>
<circle id="Ellipse 2_3" r="7.9905" transform="matrix(0.707245 0.706969 -0.707245 0.706969 423.745 106.385)" fill="black"/>
<circle id="Ellipse 3_3" r="7.9905" transform="matrix(0.707245 0.706969 -0.707245 0.706969 440.699 123.332)" fill="black"/>
<circle id="Ellipse 4_3" r="7.9905" transform="matrix(0.707245 0.706969 -0.707245 0.706969 457.652 140.279)" fill="black"/>
<circle id="Ellipse 5_3" r="7.9905" transform="matrix(0.707245 0.706969 -0.707245 0.706969 474.606 157.226)" fill="black"/>
<circle id="Ellipse 6_3" r="7.9905" transform="matrix(0.707245 0.706969 -0.707245 0.706969 491.56 174.173)" fill="black"/>
<circle id="Ellipse 7_3" r="7.9905" transform="matrix(0.707245 0.706969 -0.707245 0.706969 508.513 191.12)" fill="black"/>
<circle id="Ellipse 8_3" r="7.9905" transform="matrix(0.707245 0.706969 -0.707245 0.706969 525.467 208.068)" fill="black"/>
<circle id="Ellipse 9_3" r="7.9905" transform="matrix(0.707245 0.706969 -0.707245 0.706969 542.421 225.015)" fill="black"/>
<circle id="Ellipse 1_4" r="7.9905" transform="matrix(0.707245 0.706969 -0.707245 0.706969 372.884 157.226)" fill="black"/>
<circle id="Ellipse 2_4" r="7.9905" transform="matrix(0.707245 0.706969 -0.707245 0.706969 372.884 157.226)" fill="black"/>
<circle id="Ellipse 3_4" r="7.9905" transform="matrix(0.707245 0.706969 -0.707245 0.706969 389.838 174.173)" fill="black"/>
<circle id="Ellipse 4_4" r="7.9905" transform="matrix(0.707245 0.706969 -0.707245 0.706969 406.791 191.12)" fill="black"/>
<circle id="Ellipse 5_4" r="7.9905" transform="matrix(0.707245 0.706969 -0.707245 0.706969 423.745 208.068)" fill="black"/>
<circle id="Ellipse 6_4" r="7.9905" transform="matrix(0.707245 0.706969 -0.707245 0.706969 440.699 225.015)" fill="black"/>
<circle id="Ellipse 7_4" r="7.9905" transform="matrix(0.707245 0.706969 -0.707245 0.706969 457.652 241.962)" fill="black"/>
<circle id="Ellipse 8_4" r="7.9905" transform="matrix(0.707245 0.706969 -0.707245 0.706969 474.606 258.909)" fill="black"/>
<circle id="Ellipse 9_4" r="7.9905" transform="matrix(0.707245 0.706969 -0.707245 0.706969 491.56 275.856)" fill="black"/>
<circle id="Ellipse 1_5" r="7.9905" transform="matrix(0.707245 0.706969 -0.707245 0.706969 406.791 123.332)" fill="black"/>
<circle id="Ellipse 2_5" r="7.9905" transform="matrix(0.707245 0.706969 -0.707245 0.706969 406.791 123.332)" fill="black"/>
<circle id="Ellipse 3_5" r="7.9905" transform="matrix(0.707245 0.706969 -0.707245 0.706969 423.745 140.279)" fill="black"/>
<circle id="Ellipse 4_5" r="7.9905" transform="matrix(0.707245 0.706969 -0.707245 0.706969 440.699 157.226)" fill="black"/>
<circle id="Ellipse 5_5" r="7.9905" transform="matrix(0.707245 0.706969 -0.707245 0.706969 457.652 174.173)" fill="black"/>
<circle id="Ellipse 6_5" r="7.9905" transform="matrix(0.707245 0.706969 -0.707245 0.706969 474.606 191.12)" fill="black"/>
<circle id="Ellipse 7_5" r="7.9905" transform="matrix(0.707245 0.706969 -0.707245 0.706969 491.56 208.068)" fill="black"/>
<circle id="Ellipse 8_5" r="7.9905" transform="matrix(0.707245 0.706969 -0.707245 0.706969 508.513 225.015)" fill="black"/>
<circle id="Ellipse 9_5" r="7.9905" transform="matrix(0.707245 0.706969 -0.707245 0.706969 525.467 241.962)" fill="black"/>
<circle id="Ellipse 1_6" r="7.9905" transform="matrix(0.707245 0.706969 -0.707245 0.706969 355.93 174.173)" fill="black"/>
<circle id="Ellipse 2_6" r="7.9905" transform="matrix(0.707245 0.706969 -0.707245 0.706969 355.93 174.173)" fill="black"/>
<circle id="Ellipse 3_6" r="7.9905" transform="matrix(0.707245 0.706969 -0.707245 0.706969 372.884 191.12)" fill="black"/>
<circle id="Ellipse 4_6" r="7.9905" transform="matrix(0.707245 0.706969 -0.707245 0.706969 389.837 208.068)" fill="black"/>
<circle id="Ellipse 5_6" r="7.9905" transform="matrix(0.707245 0.706969 -0.707245 0.706969 406.791 225.015)" fill="black"/>
<circle id="Ellipse 6_6" r="7.9905" transform="matrix(0.707245 0.706969 -0.707245 0.706969 423.745 241.962)" fill="black"/>
<circle id="Ellipse 7_6" r="7.9905" transform="matrix(0.707245 0.706969 -0.707245 0.706969 440.699 258.909)" fill="black"/>
<circle id="Ellipse 8_6" r="7.9905" transform="matrix(0.707245 0.706969 -0.707245 0.706969 457.652 275.856)" fill="black"/>
<circle id="Ellipse 9_6" r="7.9905" transform="matrix(0.707245 0.706969 -0.707245 0.706969 474.606 292.803)" fill="black"/>
<circle id="Ellipse 1_7" r="7.9905" transform="matrix(0.707245 0.706969 -0.707245 0.706969 389.837 140.279)" fill="black"/>
<circle id="Ellipse 2_7" r="7.9905" transform="matrix(0.707245 0.706969 -0.707245 0.706969 389.837 140.279)" fill="black"/>
<circle id="Ellipse 3_7" r="7.9905" transform="matrix(0.707245 0.706969 -0.707245 0.706969 406.791 157.226)" fill="black"/>
<circle id="Ellipse 4_7" r="7.9905" transform="matrix(0.707245 0.706969 -0.707245 0.706969 423.745 174.173)" fill="black"/>
<circle id="Ellipse 5_7" r="7.9905" transform="matrix(0.707245 0.706969 -0.707245 0.706969 440.699 191.12)" fill="black"/>
<circle id="Ellipse 6_7" r="7.9905" transform="matrix(0.707245 0.706969 -0.707245 0.706969 457.652 208.068)" fill="black"/>
<circle id="Ellipse 7_7" r="7.9905" transform="matrix(0.707245 0.706969 -0.707245 0.706969 474.606 225.015)" fill="black"/>
<circle id="Ellipse 8_7" r="7.9905" transform="matrix(0.707245 0.706969 -0.707245 0.706969 491.56 241.962)" fill="black"/>
<circle id="Ellipse 9_7" r="7.9905" transform="matrix(0.707245 0.706969 -0.707245 0.706969 508.513 258.909)" fill="black"/>
<circle id="Ellipse 1_8" r="7.9905" transform="matrix(0.707245 0.706969 -0.707245 0.706969 338.976 191.12)" fill="black"/>
<circle id="Ellipse 2_8" r="7.9905" transform="matrix(0.707245 0.706969 -0.707245 0.706969 338.976 191.12)" fill="black"/>
<circle id="Ellipse 3_8" r="7.9905" transform="matrix(0.707245 0.706969 -0.707245 0.706969 355.93 208.068)" fill="black"/>
<circle id="Ellipse 4_8" r="7.9905" transform="matrix(0.707245 0.706969 -0.707245 0.706969 372.884 225.015)" fill="black"/>
<circle id="Ellipse 5_8" r="7.9905" transform="matrix(0.707245 0.706969 -0.707245 0.706969 389.837 241.962)" fill="black"/>
<circle id="Ellipse 6_8" r="7.9905" transform="matrix(0.707245 0.706969 -0.707245 0.706969 406.791 258.909)" fill="black"/>
<circle id="Ellipse 7_8" r="7.9905" transform="matrix(0.707245 0.706969 -0.707245 0.706969 423.745 275.856)" fill="black"/>
<circle id="Ellipse 8_8" r="7.9905" transform="matrix(0.707245 0.706969 -0.707245 0.706969 440.699 292.803)" fill="black"/>
<circle id="Ellipse 9_8" r="7.9905" transform="matrix(0.707245 0.706969 -0.707245 0.706969 457.652 309.75)" fill="black"/>
</g>
<g id="triangle-empty">
<path id="Polygon 3" d="M540.239 457.15L501.213 311.559L646.861 350.57L540.239 457.15Z" stroke="#27AE60" stroke-width="13"/>
</g>
<g id="bolt">
<path id="Vector 7" d="M570.104 553.306L659.305 501.806L680.805 539.045L770.006 487.545" stroke="#FB5607" stroke-width="10" stroke-linecap="round"/>
</g>
<g id="curved-line">
<path id="Vector 2" d="M155.359 0C155.359 0 116.52 80.226 296.93 167.5C477.34 254.774 438.5 335 438.5 335C438.5 335 399.66 415.226 580.07 502.5C760.48 589.774 721.641 670 721.641 670" stroke="#3A86FF" stroke-width="12"/>
</g>
<g id="box-3d">
<path id="Rectangle 2" d="M339.349 290.861L370.318 298.6V341.94L339.349 331.725V290.861Z" fill="#FFBE0B"/>
<path id="Rectangle 3" d="M401.287 290.861L370.318 298.6V341.94L401.287 331.725V290.861Z" fill="#FB5607"/>
<path id="Rectangle 4" d="M370.318 281.574L401.287 290.861L370.318 298.6L339.349 290.861L370.318 281.574Z" fill="#56CCF2"/>
</g>
<g id="rectangle-gradient">
<rect id="Rectangle 5" width="112.866" height="112.866" transform="matrix(0.707245 0.706969 -0.707245 0.706969 366.225 264.602)" fill="url(#paint74_linear_1_272)"/>
</g>
</g>
<defs>
<filter id="filter0_d_1_272" x="360.319" y="216.319" width="545.877" height="545.876" filterUnits="userSpaceOnUse" color-interpolation-filters="sRGB">
<feFlood flood-opacity="0" result="BackgroundImageFix"/>
<feColorMatrix in="SourceAlpha" type="matrix" values="0 0 0 0 0 0 0 0 0 0 0 0 0 0 0 0 0 0 127 0" result="hardAlpha"/>
<feOffset dx="16" dy="16"/>
<feGaussianBlur stdDeviation="38"/>
<feComposite in2="hardAlpha" operator="out"/>
<feColorMatrix type="matrix" values="0 0 0 0 0 0 0 0 0 0 0 0 0 0 0 0 0 0 0.25 0"/>
<feBlend mode="normal" in2="BackgroundImageFix" result="effect1_dropShadow_1_272"/>
<feBlend mode="normal" in="SourceGraphic" in2="effect1_dropShadow_1_272" result="shape"/>
</filter>
<filter id="filter1_di_1_272" x="396.292" y="295.795" width="376.192" height="379.076" filterUnits="userSpaceOnUse" color-interpolation-filters="sRGB">
<feFlood flood-opacity="0" result="BackgroundImageFix"/>
<feColorMatrix in="SourceAlpha" type="matrix" values="0 0 0 0 0 0 0 0 0 0 0 0 0 0 0 0 0 0 127 0" result="hardAlpha"/>
<feOffset dx="10" dy="9"/>
<feGaussianBlur stdDeviation="20"/>
<feComposite in2="hardAlpha" operator="out"/>
<feColorMatrix type="matrix" values="0 0 0 0 0 0 0 0 0 0 0 0 0 0 0 0 0 0 0.25 0"/>
<feBlend mode="normal" in2="BackgroundImageFix" result="effect1_dropShadow_1_272"/>
<feBlend mode="normal" in="SourceGraphic" in2="effect1_dropShadow_1_272" result="shape"/>
<feColorMatrix in="SourceAlpha" type="matrix" values="0 0 0 0 0 0 0 0 0 0 0 0 0 0 0 0 0 0 127 0" result="hardAlpha"/>
<feOffset dx="12" dy="52"/>
<feGaussianBlur stdDeviation="26.5"/>
<feComposite in2="hardAlpha" operator="arithmetic" k2="-1" k3="1"/>
<feColorMatrix type="matrix" values="0 0 0 0 0.354167 0 0 0 0 0.354167 0 0 0 0 0.354167 0 0 0 0.49 0"/>
<feBlend mode="normal" in2="shape" result="effect2_innerShadow_1_272"/>
</filter>
<linearGradient id="paint0_linear_1_272" x1="586.894" y1="277" x2="586.894" y2="325" gradientUnits="userSpaceOnUse">
<stop stop-color="#FFBE0B"/>
<stop offset="1" stop-color="#FFBE0B" stop-opacity="0.63"/>
</linearGradient>
<linearGradient id="paint1_linear_1_272" x1="586.894" y1="277" x2="586.894" y2="325" gradientUnits="userSpaceOnUse">
<stop stop-color="#747474"/>
<stop offset="0.625" stop-opacity="0"/>
</linearGradient>
<linearGradient id="paint2_linear_1_272" x1="628.664" y1="300.649" x2="628.664" y2="348.649" gradientUnits="userSpaceOnUse">
<stop stop-color="#FFBE0B"/>
<stop offset="1" stop-color="#FFBE0B" stop-opacity="0.63"/>
</linearGradient>
<linearGradient id="paint3_linear_1_272" x1="628.664" y1="300.649" x2="628.664" y2="348.649" gradientUnits="userSpaceOnUse">
<stop stop-color="#747474"/>
<stop offset="0.625" stop-opacity="0"/>
</linearGradient>
<linearGradient id="paint4_linear_1_272" x1="670.434" y1="324.298" x2="670.434" y2="372.298" gradientUnits="userSpaceOnUse">
<stop stop-color="#FFBE0B"/>
<stop offset="1" stop-color="#FFBE0B" stop-opacity="0.63"/>
</linearGradient>
<linearGradient id="paint5_linear_1_272" x1="670.434" y1="324.298" x2="670.434" y2="372.298" gradientUnits="userSpaceOnUse">
<stop stop-color="#747474"/>
<stop offset="0.625" stop-opacity="0"/>
</linearGradient>
<linearGradient id="paint6_linear_1_272" x1="712.204" y1="347.947" x2="712.204" y2="395.947" gradientUnits="userSpaceOnUse">
<stop stop-color="#FFBE0B"/>
<stop offset="1" stop-color="#FFBE0B" stop-opacity="0.63"/>
</linearGradient>
<linearGradient id="paint7_linear_1_272" x1="712.204" y1="347.947" x2="712.204" y2="395.947" gradientUnits="userSpaceOnUse">
<stop stop-color="#747474"/>
<stop offset="0.625" stop-opacity="0"/>
</linearGradient>
<linearGradient id="paint8_linear_1_272" x1="753.974" y1="371.596" x2="753.974" y2="419.596" gradientUnits="userSpaceOnUse">
<stop stop-color="#FFBE0B"/>
<stop offset="1" stop-color="#FFBE0B" stop-opacity="0.63"/>
</linearGradient>
<linearGradient id="paint9_linear_1_272" x1="753.974" y1="371.596" x2="753.974" y2="419.596" gradientUnits="userSpaceOnUse">
<stop stop-color="#747474"/>
<stop offset="0.625" stop-opacity="0"/>
</linearGradient>
<linearGradient id="paint10_linear_1_272" x1="795.744" y1="395.245" x2="795.744" y2="443.245" gradientUnits="userSpaceOnUse">
<stop stop-color="#FFBE0B"/>
<stop offset="1" stop-color="#FFBE0B" stop-opacity="0.63"/>
</linearGradient>
<linearGradient id="paint11_linear_1_272" x1="795.744" y1="395.245" x2="795.744" y2="443.245" gradientUnits="userSpaceOnUse">
<stop stop-color="#747474"/>
<stop offset="0.625" stop-opacity="0"/>
</linearGradient>
<linearGradient id="paint12_linear_1_272" x1="563.245" y1="318.77" x2="563.245" y2="366.77" gradientUnits="userSpaceOnUse">
<stop stop-color="#FFBE0B"/>
<stop offset="1" stop-color="#FFBE0B" stop-opacity="0.63"/>
</linearGradient>
<linearGradient id="paint13_linear_1_272" x1="563.245" y1="318.77" x2="563.245" y2="366.77" gradientUnits="userSpaceOnUse">
<stop stop-color="#747474"/>
<stop offset="0.625" stop-opacity="0"/>
</linearGradient>
<linearGradient id="paint14_linear_1_272" x1="605.015" y1="342.419" x2="605.015" y2="390.419" gradientUnits="userSpaceOnUse">
<stop stop-color="#FFBE0B"/>
<stop offset="1" stop-color="#FFBE0B" stop-opacity="0.63"/>
</linearGradient>
<linearGradient id="paint15_linear_1_272" x1="605.015" y1="342.419" x2="605.015" y2="390.419" gradientUnits="userSpaceOnUse">
<stop stop-color="#747474"/>
<stop offset="0.625" stop-opacity="0"/>
</linearGradient>
<linearGradient id="paint16_linear_1_272" x1="646.785" y1="366.068" x2="646.785" y2="414.068" gradientUnits="userSpaceOnUse">
<stop stop-color="#FFBE0B"/>
<stop offset="1" stop-color="#FFBE0B" stop-opacity="0.63"/>
</linearGradient>
<linearGradient id="paint17_linear_1_272" x1="646.785" y1="366.068" x2="646.785" y2="414.068" gradientUnits="userSpaceOnUse">
<stop stop-color="#747474"/>
<stop offset="0.625" stop-opacity="0"/>
</linearGradient>
<linearGradient id="paint18_linear_1_272" x1="688.555" y1="389.717" x2="688.555" y2="437.717" gradientUnits="userSpaceOnUse">
<stop stop-color="#FFBE0B"/>
<stop offset="1" stop-color="#FFBE0B" stop-opacity="0.63"/>
</linearGradient>
<linearGradient id="paint19_linear_1_272" x1="688.555" y1="389.717" x2="688.555" y2="437.717" gradientUnits="userSpaceOnUse">
<stop stop-color="#747474"/>
<stop offset="0.625" stop-opacity="0"/>
</linearGradient>
<linearGradient id="paint20_linear_1_272" x1="730.325" y1="413.366" x2="730.325" y2="461.366" gradientUnits="userSpaceOnUse">
<stop stop-color="#FFBE0B"/>
<stop offset="1" stop-color="#FFBE0B" stop-opacity="0.63"/>
</linearGradient>
<linearGradient id="paint21_linear_1_272" x1="730.325" y1="413.366" x2="730.325" y2="461.366" gradientUnits="userSpaceOnUse">
<stop stop-color="#747474"/>
<stop offset="0.625" stop-opacity="0"/>
</linearGradient>
<linearGradient id="paint22_linear_1_272" x1="772.095" y1="437.015" x2="772.095" y2="485.015" gradientUnits="userSpaceOnUse">
<stop stop-color="#FFBE0B"/>
<stop offset="1" stop-color="#FFBE0B" stop-opacity="0.63"/>
</linearGradient>
<linearGradient id="paint23_linear_1_272" x1="772.095" y1="437.015" x2="772.095" y2="485.015" gradientUnits="userSpaceOnUse">
<stop stop-color="#747474"/>
<stop offset="0.625" stop-opacity="0"/>
</linearGradient>
<linearGradient id="paint24_linear_1_272" x1="539.596" y1="360.54" x2="539.596" y2="408.54" gradientUnits="userSpaceOnUse">
<stop stop-color="#FFBE0B"/>
<stop offset="1" stop-color="#FFBE0B" stop-opacity="0.63"/>
</linearGradient>
<linearGradient id="paint25_linear_1_272" x1="539.596" y1="360.54" x2="539.596" y2="408.54" gradientUnits="userSpaceOnUse">
<stop stop-color="#747474"/>
<stop offset="0.625" stop-opacity="0"/>
</linearGradient>
<linearGradient id="paint26_linear_1_272" x1="581.366" y1="384.189" x2="581.366" y2="432.189" gradientUnits="userSpaceOnUse">
<stop stop-color="#FFBE0B"/>
<stop offset="1" stop-color="#FFBE0B" stop-opacity="0.63"/>
</linearGradient>
<linearGradient id="paint27_linear_1_272" x1="581.366" y1="384.189" x2="581.366" y2="432.189" gradientUnits="userSpaceOnUse">
<stop stop-color="#747474"/>
<stop offset="0.625" stop-opacity="0"/>
</linearGradient>
<linearGradient id="paint28_linear_1_272" x1="623.136" y1="407.838" x2="623.136" y2="455.838" gradientUnits="userSpaceOnUse">
<stop stop-color="#FFBE0B"/>
<stop offset="1" stop-color="#FFBE0B" stop-opacity="0.63"/>
</linearGradient>
<linearGradient id="paint29_linear_1_272" x1="623.136" y1="407.838" x2="623.136" y2="455.838" gradientUnits="userSpaceOnUse">
<stop stop-color="#747474"/>
<stop offset="0.625" stop-opacity="0"/>
</linearGradient>
<linearGradient id="paint30_linear_1_272" x1="664.906" y1="431.487" x2="664.906" y2="479.487" gradientUnits="userSpaceOnUse">
<stop stop-color="#FFBE0B"/>
<stop offset="1" stop-color="#FFBE0B" stop-opacity="0.63"/>
</linearGradient>
<linearGradient id="paint31_linear_1_272" x1="664.906" y1="431.487" x2="664.906" y2="479.487" gradientUnits="userSpaceOnUse">
<stop stop-color="#747474"/>
<stop offset="0.625" stop-opacity="0"/>
</linearGradient>
<linearGradient id="paint32_linear_1_272" x1="706.676" y1="455.136" x2="706.676" y2="503.136" gradientUnits="userSpaceOnUse">
<stop stop-color="#FFBE0B"/>
<stop offset="1" stop-color="#FFBE0B" stop-opacity="0.63"/>
</linearGradient>
<linearGradient id="paint33_linear_1_272" x1="706.676" y1="455.136" x2="706.676" y2="503.136" gradientUnits="userSpaceOnUse">
<stop stop-color="#747474"/>
<stop offset="0.625" stop-opacity="0"/>
</linearGradient>
<linearGradient id="paint34_linear_1_272" x1="748.446" y1="478.785" x2="748.446" y2="526.785" gradientUnits="userSpaceOnUse">
<stop stop-color="#FFBE0B"/>
<stop offset="1" stop-color="#FFBE0B" stop-opacity="0.63"/>
</linearGradient>
<linearGradient id="paint35_linear_1_272" x1="748.446" y1="478.785" x2="748.446" y2="526.785" gradientUnits="userSpaceOnUse">
<stop stop-color="#747474"/>
<stop offset="0.625" stop-opacity="0"/>
</linearGradient>
<linearGradient id="paint36_linear_1_272" x1="515.947" y1="402.31" x2="515.947" y2="450.31" gradientUnits="userSpaceOnUse">
<stop stop-color="#FFBE0B"/>
<stop offset="1" stop-color="#FFBE0B" stop-opacity="0.63"/>
</linearGradient>
<linearGradient id="paint37_linear_1_272" x1="515.947" y1="402.31" x2="515.947" y2="450.31" gradientUnits="userSpaceOnUse">
<stop stop-color="#747474"/>
<stop offset="0.625" stop-opacity="0"/>
</linearGradient>
<linearGradient id="paint38_linear_1_272" x1="557.717" y1="425.959" x2="557.717" y2="473.959" gradientUnits="userSpaceOnUse">
<stop stop-color="#FFBE0B"/>
<stop offset="1" stop-color="#FFBE0B" stop-opacity="0.63"/>
</linearGradient>
<linearGradient id="paint39_linear_1_272" x1="557.717" y1="425.959" x2="557.717" y2="473.959" gradientUnits="userSpaceOnUse">
<stop stop-color="#747474"/>
<stop offset="0.625" stop-opacity="0"/>
</linearGradient>
<linearGradient id="paint40_linear_1_272" x1="599.487" y1="449.608" x2="599.487" y2="497.608" gradientUnits="userSpaceOnUse">
<stop stop-color="#FFBE0B"/>
<stop offset="1" stop-color="#FFBE0B" stop-opacity="0.63"/>
</linearGradient>
<linearGradient id="paint41_linear_1_272" x1="599.487" y1="449.608" x2="599.487" y2="497.608" gradientUnits="userSpaceOnUse">
<stop stop-color="#747474"/>
<stop offset="0.625" stop-opacity="0"/>
</linearGradient>
<linearGradient id="paint42_linear_1_272" x1="641.257" y1="473.257" x2="641.257" y2="521.257" gradientUnits="userSpaceOnUse">
<stop stop-color="#FFBE0B"/>
<stop offset="1" stop-color="#FFBE0B" stop-opacity="0.63"/>
</linearGradient>
<linearGradient id="paint43_linear_1_272" x1="641.257" y1="473.257" x2="641.257" y2="521.257" gradientUnits="userSpaceOnUse">
<stop stop-color="#747474"/>
<stop offset="0.625" stop-opacity="0"/>
</linearGradient>
<linearGradient id="paint44_linear_1_272" x1="683.027" y1="496.906" x2="683.027" y2="544.906" gradientUnits="userSpaceOnUse">
<stop stop-color="#FFBE0B"/>
<stop offset="1" stop-color="#FFBE0B" stop-opacity="0.63"/>
</linearGradient>
<linearGradient id="paint45_linear_1_272" x1="683.027" y1="496.906" x2="683.027" y2="544.906" gradientUnits="userSpaceOnUse">
<stop stop-color="#747474"/>
<stop offset="0.625" stop-opacity="0"/>
</linearGradient>
<linearGradient id="paint46_linear_1_272" x1="724.797" y1="520.555" x2="724.797" y2="568.555" gradientUnits="userSpaceOnUse">
<stop stop-color="#FFBE0B"/>
<stop offset="1" stop-color="#FFBE0B" stop-opacity="0.63"/>
</linearGradient>
<linearGradient id="paint47_linear_1_272" x1="724.797" y1="520.555" x2="724.797" y2="568.555" gradientUnits="userSpaceOnUse">
<stop stop-color="#747474"/>
<stop offset="0.625" stop-opacity="0"/>
</linearGradient>
<linearGradient id="paint48_linear_1_272" x1="492.298" y1="444.08" x2="492.298" y2="492.08" gradientUnits="userSpaceOnUse">
<stop stop-color="#FFBE0B"/>
<stop offset="1" stop-color="#FFBE0B" stop-opacity="0.63"/>
</linearGradient>
<linearGradient id="paint49_linear_1_272" x1="492.298" y1="444.08" x2="492.298" y2="492.08" gradientUnits="userSpaceOnUse">
<stop stop-color="#747474"/>
<stop offset="0.625" stop-opacity="0"/>
</linearGradient>
<linearGradient id="paint50_linear_1_272" x1="534.068" y1="467.729" x2="534.068" y2="515.729" gradientUnits="userSpaceOnUse">
<stop stop-color="#FFBE0B"/>
<stop offset="1" stop-color="#FFBE0B" stop-opacity="0.63"/>
</linearGradient>
<linearGradient id="paint51_linear_1_272" x1="534.068" y1="467.729" x2="534.068" y2="515.729" gradientUnits="userSpaceOnUse">
<stop stop-color="#747474"/>
<stop offset="0.625" stop-opacity="0"/>
</linearGradient>
<linearGradient id="paint52_linear_1_272" x1="575.838" y1="491.378" x2="575.838" y2="539.378" gradientUnits="userSpaceOnUse">
<stop stop-color="#FFBE0B"/>
<stop offset="1" stop-color="#FFBE0B" stop-opacity="0.63"/>
</linearGradient>
<linearGradient id="paint53_linear_1_272" x1="575.838" y1="491.378" x2="575.838" y2="539.378" gradientUnits="userSpaceOnUse">
<stop stop-color="#747474"/>
<stop offset="0.625" stop-opacity="0"/>
</linearGradient>
<linearGradient id="paint54_linear_1_272" x1="617.608" y1="515.027" x2="617.608" y2="563.027" gradientUnits="userSpaceOnUse">
<stop stop-color="#FFBE0B"/>
<stop offset="1" stop-color="#FFBE0B" stop-opacity="0.63"/>
</linearGradient>
<linearGradient id="paint55_linear_1_272" x1="617.608" y1="515.027" x2="617.608" y2="563.027" gradientUnits="userSpaceOnUse">
<stop stop-color="#747474"/>
<stop offset="0.625" stop-opacity="0"/>
</linearGradient>
<linearGradient id="paint56_linear_1_272" x1="659.378" y1="538.676" x2="659.378" y2="586.676" gradientUnits="userSpaceOnUse">
<stop stop-color="#FFBE0B"/>
<stop offset="1" stop-color="#FFBE0B" stop-opacity="0.63"/>
</linearGradient>
<linearGradient id="paint57_linear_1_272" x1="659.378" y1="538.676" x2="659.378" y2="586.676" gradientUnits="userSpaceOnUse">
<stop stop-color="#747474"/>
<stop offset="0.625" stop-opacity="0"/>
</linearGradient>
<linearGradient id="paint58_linear_1_272" x1="701.148" y1="562.325" x2="701.148" y2="610.325" gradientUnits="userSpaceOnUse">
<stop stop-color="#FFBE0B"/>
<stop offset="1" stop-color="#FFBE0B" stop-opacity="0.63"/>
</linearGradient>
<linearGradient id="paint59_linear_1_272" x1="701.148" y1="562.325" x2="701.148" y2="610.325" gradientUnits="userSpaceOnUse">
<stop stop-color="#747474"/>
<stop offset="0.625" stop-opacity="0"/>
</linearGradient>
<linearGradient id="paint60_linear_1_272" x1="468.649" y1="485.849" x2="468.649" y2="533.849" gradientUnits="userSpaceOnUse">
<stop stop-color="#FFBE0B"/>
<stop offset="1" stop-color="#FFBE0B" stop-opacity="0.63"/>
</linearGradient>
<linearGradient id="paint61_linear_1_272" x1="468.649" y1="485.849" x2="468.649" y2="533.849" gradientUnits="userSpaceOnUse">
<stop stop-color="#747474"/>
<stop offset="0.625" stop-opacity="0"/>
</linearGradient>
<linearGradient id="paint62_linear_1_272" x1="510.419" y1="509.498" x2="510.419" y2="557.498" gradientUnits="userSpaceOnUse">
<stop stop-color="#FFBE0B"/>
<stop offset="1" stop-color="#FFBE0B" stop-opacity="0.63"/>
</linearGradient>
<linearGradient id="paint63_linear_1_272" x1="510.419" y1="509.498" x2="510.419" y2="557.498" gradientUnits="userSpaceOnUse">
<stop stop-color="#747474"/>
<stop offset="0.625" stop-opacity="0"/>
</linearGradient>
<linearGradient id="paint64_linear_1_272" x1="552.189" y1="533.147" x2="552.189" y2="581.147" gradientUnits="userSpaceOnUse">
<stop stop-color="#FFBE0B"/>
<stop offset="1" stop-color="#FFBE0B" stop-opacity="0.63"/>
</linearGradient>
<linearGradient id="paint65_linear_1_272" x1="552.189" y1="533.147" x2="552.189" y2="581.147" gradientUnits="userSpaceOnUse">
<stop stop-color="#747474"/>
<stop offset="0.625" stop-opacity="0"/>
</linearGradient>
<linearGradient id="paint66_linear_1_272" x1="593.959" y1="556.797" x2="593.959" y2="604.797" gradientUnits="userSpaceOnUse">
<stop stop-color="#FFBE0B"/>
<stop offset="1" stop-color="#FFBE0B" stop-opacity="0.63"/>
</linearGradient>
<linearGradient id="paint67_linear_1_272" x1="593.959" y1="556.797" x2="593.959" y2="604.797" gradientUnits="userSpaceOnUse">
<stop stop-color="#747474"/>
<stop offset="0.625" stop-opacity="0"/>
</linearGradient>
<linearGradient id="paint68_linear_1_272" x1="635.729" y1="580.446" x2="635.729" y2="628.446" gradientUnits="userSpaceOnUse">
<stop stop-color="#FFBE0B"/>
<stop offset="1" stop-color="#FFBE0B" stop-opacity="0.63"/>
</linearGradient>
<linearGradient id="paint69_linear_1_272" x1="635.729" y1="580.446" x2="635.729" y2="628.446" gradientUnits="userSpaceOnUse">
<stop stop-color="#747474"/>
<stop offset="0.625" stop-opacity="0"/>
</linearGradient>
<linearGradient id="paint70_linear_1_272" x1="677.498" y1="604.095" x2="677.498" y2="652.095" gradientUnits="userSpaceOnUse">
<stop stop-color="#FFBE0B"/>
<stop offset="1" stop-color="#FFBE0B" stop-opacity="0.63"/>
</linearGradient>
<linearGradient id="paint71_linear_1_272" x1="677.498" y1="604.095" x2="677.498" y2="652.095" gradientUnits="userSpaceOnUse">
<stop stop-color="#747474"/>
<stop offset="0.625" stop-opacity="0"/>
</linearGradient>
<linearGradient id="paint72_linear_1_272" x1="119.878" y1="0" x2="119.878" y2="239.675" gradientUnits="userSpaceOnUse">
<stop stop-color="white"/>
<stop offset="1" stop-color="#D9D9D9" stop-opacity="0"/>
</linearGradient>
<linearGradient id="paint73_linear_1_272" x1="321.85" y1="317.54" x2="221.475" y2="269.618" gradientUnits="userSpaceOnUse">
<stop stop-color="#FB5607"/>
<stop offset="1" stop-color="#FB5607" stop-opacity="0.61"/>
</linearGradient>
<linearGradient id="paint74_linear_1_272" x1="56.4329" y1="0" x2="56.4329" y2="112.866" gradientUnits="userSpaceOnUse">
<stop stop-color="#FFBE0B" stop-opacity="0.49"/>
<stop offset="1" stop-color="#FFBE0B"/>
</linearGradient>
</defs>
</svg>
